<svg width="839.176" height="139.5" viewBox="0 0 839.176 139.5" xmlns="http://www.w3.org/2000/svg"><g id="svgGroup" stroke-linecap="round" fill-rule="evenodd" font-size="9pt" stroke="#878787" stroke-width="1" fill="#ffffff" style="stroke:#878787;stroke-width:1;fill:#ffffff"><path d="M 488.625 66.15 L 489.075 73.65 A 185.846 185.846 0 0 0 481.987 72.9 Q 473.294 72.157 466.837 72.563 A 74.16 74.16 0 0 0 461.591 73.068 Q 458.901 73.43 456.641 73.979 A 29.999 29.999 0 0 0 452.55 75.263 A 24.738 24.738 0 0 0 449.311 76.826 Q 447.698 77.765 446.504 78.862 A 11.556 11.556 0 0 0 444.9 80.663 Q 442.575 83.925 442.575 87.75 A 15.489 15.489 0 0 0 443.239 92.401 A 12.164 12.164 0 0 0 447.3 98.325 Q 451.275 101.543 457.852 102.054 A 33.256 33.256 0 0 0 460.425 102.15 Q 467.475 102.15 473.062 99.488 Q 478.65 96.825 481.912 92.213 Q 485.175 87.6 485.175 81.75 L 485.175 59.7 A 21.922 21.922 0 0 0 484.651 54.797 A 16.702 16.702 0 0 0 482.625 49.763 Q 480.075 45.6 475.312 43.35 A 22.406 22.406 0 0 0 469.893 41.628 Q 467.456 41.166 464.676 41.108 A 38.589 38.589 0 0 0 463.875 41.1 Q 458.175 41.1 452.55 42.825 Q 446.925 44.55 441.375 48.6 L 438.3 41.1 A 43.553 43.553 0 0 1 445.422 36.889 A 35.13 35.13 0 0 1 451.425 34.725 A 55.829 55.829 0 0 1 458.697 33.33 A 44.462 44.462 0 0 1 464.025 33 A 52.084 52.084 0 0 1 470.935 33.432 Q 474.547 33.917 477.584 34.943 A 27.155 27.155 0 0 1 480.413 36.075 A 22.206 22.206 0 0 1 487.127 40.82 A 20.657 20.657 0 0 1 490.275 45.112 A 25.236 25.236 0 0 1 492.85 52.199 Q 493.484 55.225 493.564 58.698 A 43.882 43.882 0 0 1 493.575 59.7 L 493.575 108 L 485.175 108 L 485.175 98.55 A 24.128 24.128 0 0 1 476.104 106.432 A 29.575 29.575 0 0 1 474.375 107.25 A 36.555 36.555 0 0 1 462.271 110.145 A 43.408 43.408 0 0 1 459.225 110.25 Q 451.777 110.25 446.341 107.734 A 22.689 22.689 0 0 1 445.725 107.438 A 21.037 21.037 0 0 1 439.796 103.109 A 19.322 19.322 0 0 1 437.138 99.562 A 21.513 21.513 0 0 1 434.436 91.609 A 27.675 27.675 0 0 1 434.175 87.75 Q 434.175 82.2 437.062 77.513 Q 439.694 73.24 445.222 70.245 A 33.053 33.053 0 0 1 446.325 69.675 A 34.556 34.556 0 0 1 451.923 67.534 Q 454.802 66.692 458.212 66.124 A 76.7 76.7 0 0 1 463.125 65.475 Q 473.12 64.468 487.388 66.012 A 202.514 202.514 0 0 1 488.625 66.15 Z M 525.15 92.85 L 526.5 91.05 L 526.5 108 L 518.1 108 L 518.1 0 L 526.5 0 L 526.5 52.95 L 525.15 51.15 Q 529.875 43.725 537.675 38.738 A 30.626 30.626 0 0 1 547.922 34.638 Q 551.978 33.778 556.648 33.751 A 52.473 52.473 0 0 1 556.95 33.75 A 38.375 38.375 0 0 1 567.605 35.178 A 32.337 32.337 0 0 1 576.037 38.963 Q 584.25 44.175 588.825 52.875 A 40.272 40.272 0 0 1 593.393 71.188 A 47.058 47.058 0 0 1 593.4 72 Q 593.4 79.8 590.775 86.738 Q 588.15 93.675 583.312 98.963 Q 578.475 104.25 571.8 107.25 Q 565.125 110.25 556.95 110.25 Q 549.3 110.25 543.3 108 Q 537.3 105.75 532.8 101.813 Q 528.3 97.875 525.15 92.85 Z M 9.45 108 L 0 108 L 42.3 3 L 49.8 3 L 93.9 108 L 84.15 108 L 72.15 79.2 L 20.85 79.2 L 9.45 108 Z M 728.025 108 L 718.575 108 L 760.875 3 L 768.375 3 L 812.475 108 L 802.725 108 L 790.725 79.2 L 739.425 79.2 L 728.025 108 Z M 117.75 139.5 L 109.35 139.5 L 109.35 36 L 117.75 36 L 117.75 48.15 Q 122.475 41.925 129.6 37.838 A 28.034 28.034 0 0 1 136.667 35.043 Q 140 34.195 143.925 33.903 A 57.712 57.712 0 0 1 148.2 33.75 A 38.375 38.375 0 0 1 158.855 35.178 A 32.337 32.337 0 0 1 167.287 38.963 Q 175.5 44.175 180.075 52.875 A 40.272 40.272 0 0 1 184.643 71.188 A 47.058 47.058 0 0 1 184.65 72 Q 184.65 79.8 182.025 86.738 Q 179.4 93.675 174.563 98.963 Q 169.725 104.25 163.05 107.25 Q 156.375 110.25 148.2 110.25 Q 137.766 110.25 130.32 106.291 A 28.96 28.96 0 0 1 130.012 106.125 A 36.641 36.641 0 0 1 119.376 97.499 A 35.037 35.037 0 0 1 117.75 95.4 L 117.75 139.5 Z M 211.8 139.5 L 203.4 139.5 L 203.4 36 L 211.8 36 L 211.8 48.15 Q 216.525 41.925 223.65 37.838 A 28.034 28.034 0 0 1 230.717 35.043 Q 234.05 34.195 237.975 33.903 A 57.712 57.712 0 0 1 242.25 33.75 A 38.375 38.375 0 0 1 252.905 35.178 A 32.337 32.337 0 0 1 261.337 38.963 Q 269.55 44.175 274.125 52.875 A 40.272 40.272 0 0 1 278.693 71.188 A 47.058 47.058 0 0 1 278.7 72 Q 278.7 79.8 276.075 86.738 Q 273.45 93.675 268.613 98.963 Q 263.775 104.25 257.1 107.25 Q 250.425 110.25 242.25 110.25 Q 231.816 110.25 224.37 106.291 A 28.96 28.96 0 0 1 224.062 106.125 A 36.641 36.641 0 0 1 213.426 97.499 A 35.037 35.037 0 0 1 211.8 95.4 L 211.8 139.5 Z M 709.65 72.9 L 648.6 72.9 Q 648.15 81.675 651.675 88.238 Q 655.2 94.8 662.1 98.475 A 30.306 30.306 0 0 0 670.717 101.447 A 42.011 42.011 0 0 0 678.6 102.15 Q 684.375 102.15 690.112 100.088 A 29.086 29.086 0 0 0 696.916 96.621 A 25.728 25.728 0 0 0 699.9 94.2 L 704.775 101.25 Q 701.1 104.325 696.525 106.35 Q 691.95 108.375 687.112 109.313 Q 682.275 110.25 677.55 110.25 Q 666.3 110.25 657.675 105.488 Q 649.05 100.725 644.175 92.175 Q 639.3 83.625 639.3 72.3 A 43.152 43.152 0 0 1 640.612 61.523 A 38.489 38.489 0 0 1 642.075 57 Q 644.85 49.95 649.875 44.738 Q 654.9 39.525 661.612 36.638 A 35.949 35.949 0 0 1 674.249 33.795 A 41.815 41.815 0 0 1 676.2 33.75 A 40.052 40.052 0 0 1 684.49 34.574 A 32.112 32.112 0 0 1 691.088 36.713 Q 697.65 39.675 702.037 45 Q 706.425 50.325 708.45 57.45 A 38.508 38.508 0 0 1 709.866 66.773 Q 709.962 69.751 709.65 72.9 Z M 420.3 40.5 L 415.2 47.4 A 20.989 20.989 0 0 0 410.128 44.29 A 26.049 26.049 0 0 0 407.4 43.275 A 32.052 32.052 0 0 0 399.094 41.878 A 36.699 36.699 0 0 0 397.65 41.85 A 40.165 40.165 0 0 0 389.798 42.581 A 29.751 29.751 0 0 0 381.675 45.412 Q 374.925 48.975 371.212 55.688 A 28.738 28.738 0 0 0 368.211 64.105 Q 367.511 67.659 367.5 71.721 A 47.935 47.935 0 0 0 367.5 71.85 A 39.947 39.947 0 0 0 368.501 81.061 A 26.589 26.589 0 0 0 375.6 94.087 A 26.963 26.963 0 0 0 389.432 101.363 A 39.297 39.297 0 0 0 397.5 102.15 A 28.743 28.743 0 0 0 406.323 100.816 A 26.769 26.769 0 0 0 408.412 100.05 A 29.348 29.348 0 0 0 411.888 98.348 Q 413.694 97.301 415.079 96.088 A 15.612 15.612 0 0 0 416.25 94.95 L 421.95 101.4 Q 416.475 105.525 410.25 107.888 Q 404.025 110.25 397.05 110.25 A 43.703 43.703 0 0 1 385.836 108.863 A 36.297 36.297 0 0 1 377.025 105.262 Q 368.325 100.275 363.412 91.65 Q 358.5 83.025 358.5 72 A 41.95 41.95 0 0 1 359.628 62.115 A 36.115 36.115 0 0 1 361.425 56.625 Q 364.35 49.65 369.712 44.513 Q 375.075 39.375 382.35 36.563 Q 389.625 33.75 398.25 33.75 A 45.011 45.011 0 0 1 405.448 34.304 A 36.802 36.802 0 0 1 410.1 35.363 A 33.112 33.112 0 0 1 419.999 40.282 A 37.204 37.204 0 0 1 420.3 40.5 Z M 305.85 108 L 297.45 108 L 297.45 0 L 305.85 0 L 305.85 108 Z M 620.55 108 L 612.15 108 L 612.15 0 L 620.55 0 L 620.55 108 Z M 146.7 102.15 A 32.888 32.888 0 0 0 155.147 101.104 A 27.346 27.346 0 0 0 161.7 98.437 Q 168.225 94.725 171.938 87.975 Q 175.65 81.225 175.65 72 A 38.603 38.603 0 0 0 174.861 64.014 A 29.193 29.193 0 0 0 171.937 55.988 Q 168.225 49.2 161.7 45.525 A 28.572 28.572 0 0 0 150.878 42.087 A 35.959 35.959 0 0 0 146.7 41.85 A 33.235 33.235 0 0 0 138.304 42.872 A 27.515 27.515 0 0 0 131.7 45.525 Q 125.175 49.2 121.462 55.988 A 29.749 29.749 0 0 0 118.272 65.424 A 39.784 39.784 0 0 0 117.75 72 A 38.594 38.594 0 0 0 118.512 79.852 A 28.96 28.96 0 0 0 121.462 87.975 Q 125.175 94.725 131.7 98.438 A 28.386 28.386 0 0 0 142.584 101.918 A 35.643 35.643 0 0 0 146.7 102.15 Z M 240.75 102.15 A 32.888 32.888 0 0 0 249.197 101.104 A 27.346 27.346 0 0 0 255.75 98.437 Q 262.275 94.725 265.988 87.975 Q 269.7 81.225 269.7 72 A 38.603 38.603 0 0 0 268.911 64.014 A 29.193 29.193 0 0 0 265.987 55.988 Q 262.275 49.2 255.75 45.525 A 28.572 28.572 0 0 0 244.928 42.087 A 35.959 35.959 0 0 0 240.75 41.85 A 33.235 33.235 0 0 0 232.354 42.872 A 27.515 27.515 0 0 0 225.75 45.525 Q 219.225 49.2 215.513 55.988 A 29.749 29.749 0 0 0 212.322 65.424 A 39.784 39.784 0 0 0 211.8 72 A 38.594 38.594 0 0 0 212.562 79.852 A 28.96 28.96 0 0 0 215.512 87.975 Q 219.225 94.725 225.75 98.438 A 28.386 28.386 0 0 0 236.634 101.918 A 35.643 35.643 0 0 0 240.75 102.15 Z M 555.45 102.15 A 32.888 32.888 0 0 0 563.897 101.104 A 27.346 27.346 0 0 0 570.45 98.437 Q 576.975 94.725 580.687 87.975 Q 584.4 81.225 584.4 72 A 38.603 38.603 0 0 0 583.611 64.014 A 29.193 29.193 0 0 0 580.687 55.988 Q 576.975 49.2 570.45 45.525 A 28.572 28.572 0 0 0 559.628 42.087 A 35.959 35.959 0 0 0 555.45 41.85 A 33.235 33.235 0 0 0 547.054 42.872 A 27.515 27.515 0 0 0 540.45 45.525 Q 533.925 49.2 530.212 55.988 A 29.749 29.749 0 0 0 527.022 65.424 A 39.784 39.784 0 0 0 526.5 72 A 38.594 38.594 0 0 0 527.262 79.852 A 28.96 28.96 0 0 0 530.212 87.975 Q 533.925 94.725 540.45 98.438 A 28.386 28.386 0 0 0 551.334 101.918 A 35.643 35.643 0 0 0 555.45 102.15 Z M 45.75 15.9 L 24 71.1 L 68.85 71.1 L 45.75 15.9 Z M 764.325 15.9 L 742.575 71.1 L 787.425 71.1 L 764.325 15.9 Z M 339.75 108 L 331.35 108 L 331.35 36 L 339.75 36 L 339.75 108 Z M 836.325 108 L 827.925 108 L 827.925 36 L 836.325 36 L 836.325 108 Z M 648.9 65.1 L 700.65 65.1 A 33.309 33.309 0 0 0 699.629 57.955 Q 698.386 53.245 695.68 49.795 A 19.891 19.891 0 0 0 694.05 47.963 A 19.731 19.731 0 0 0 685.699 43.116 Q 681.524 41.85 676.2 41.85 A 34.421 34.421 0 0 0 667.654 42.859 A 25.493 25.493 0 0 0 657.525 47.963 Q 650.175 54.075 648.9 65.1 Z M 330.627 18.851 A 6.787 6.787 0 0 0 335.55 20.85 A 8.239 8.239 0 0 0 335.641 20.849 A 6.786 6.786 0 0 0 340.537 18.788 A 8.177 8.177 0 0 0 340.601 18.723 A 6.787 6.787 0 0 0 342.6 13.8 A 8.239 8.239 0 0 0 342.599 13.709 A 6.786 6.786 0 0 0 340.538 8.813 A 8.177 8.177 0 0 0 340.473 8.749 A 6.787 6.787 0 0 0 335.55 6.75 A 8.239 8.239 0 0 0 335.459 6.751 A 6.786 6.786 0 0 0 330.563 8.812 A 8.177 8.177 0 0 0 330.499 8.877 A 6.787 6.787 0 0 0 328.5 13.8 A 8.239 8.239 0 0 0 328.501 13.891 A 6.786 6.786 0 0 0 330.562 18.787 A 8.177 8.177 0 0 0 330.627 18.851 Z M 827.202 18.851 A 6.787 6.787 0 0 0 832.125 20.85 A 8.239 8.239 0 0 0 832.216 20.849 A 6.786 6.786 0 0 0 837.112 18.788 A 8.177 8.177 0 0 0 837.176 18.723 A 6.787 6.787 0 0 0 839.175 13.8 A 8.239 8.239 0 0 0 839.174 13.709 A 6.786 6.786 0 0 0 837.113 8.813 A 8.177 8.177 0 0 0 837.048 8.749 A 6.787 6.787 0 0 0 832.125 6.75 A 8.239 8.239 0 0 0 832.034 6.751 A 6.786 6.786 0 0 0 827.138 8.812 A 8.177 8.177 0 0 0 827.074 8.877 A 6.787 6.787 0 0 0 825.075 13.8 A 8.239 8.239 0 0 0 825.076 13.891 A 6.786 6.786 0 0 0 827.137 18.787 A 8.177 8.177 0 0 0 827.202 18.851 Z"/></g></svg>