<svg width="232.501" height="68.401" viewBox="0 0 232.501 68.401" xmlns="http://www.w3.org/2000/svg"><g id="svgGroup" stroke-linecap="round" fill-rule="evenodd" font-size="9pt" stroke="#000" stroke-width="0" fill="#dbdbdb" style="stroke:#000;stroke-width:0;fill:#dbdbdb"><path d="M 1.401 65.2 L 1.401 55.6 Q 5.701 57.2 10.651 58.2 Q 15.601 59.2 20.501 59.2 A 52.981 52.981 0 0 0 24.528 59.058 Q 29.284 58.694 32.051 57.4 Q 35.868 55.616 35.901 50.293 A 15.017 15.017 0 0 0 35.901 50.2 Q 35.901 46.9 34.301 44.9 Q 33.164 43.479 30.966 42.335 A 20.338 20.338 0 0 0 29.001 41.45 A 48.243 48.243 0 0 0 26.415 40.529 Q 23.27 39.5 18.801 38.4 A 62.081 62.081 0 0 1 13.45 36.77 Q 7.222 34.535 4.201 31.55 A 13.684 13.684 0 0 1 0.497 24.747 A 20.527 20.527 0 0 1 0.001 20.1 Q 0.001 11.6 6.201 6.8 A 19.849 19.849 0 0 1 12.11 3.737 Q 14.868 2.814 18.249 2.382 A 50.97 50.97 0 0 1 24.701 2 A 69.772 69.772 0 0 1 32.013 2.37 A 59.176 59.176 0 0 1 35.251 2.8 A 75.969 75.969 0 0 1 38.135 3.32 Q 41.076 3.913 43.001 4.6 L 43.001 14.2 A 44.237 44.237 0 0 0 31.523 11.556 A 54.179 54.179 0 0 0 26.201 11.3 A 44.068 44.068 0 0 0 22.014 11.486 Q 17.751 11.894 15.001 13.2 Q 11.001 15.1 11.001 20.1 A 9.802 9.802 0 0 0 11.194 22.101 Q 11.459 23.374 12.09 24.36 A 5.867 5.867 0 0 0 12.401 24.8 A 6.837 6.837 0 0 0 13.706 26.054 Q 15.025 27.045 17.116 27.848 A 22.511 22.511 0 0 0 17.251 27.9 A 56.732 56.732 0 0 0 19.666 28.742 Q 22.194 29.565 25.646 30.493 A 195.732 195.732 0 0 0 26.801 30.8 Q 31.943 32.102 35.581 33.721 A 27.205 27.205 0 0 1 39.051 35.55 Q 42.946 38.012 44.756 41.195 A 12.16 12.16 0 0 1 45.151 41.95 A 17.817 17.817 0 0 1 46.761 47.671 A 22.239 22.239 0 0 1 46.901 50.2 A 18.411 18.411 0 0 1 45.94 56.284 A 15.456 15.456 0 0 1 40.601 63.55 A 19.956 19.956 0 0 1 34.756 66.576 Q 29.392 68.386 21.62 68.4 A 67.381 67.381 0 0 1 21.501 68.4 Q 12.892 68.4 6.607 66.882 A 33.957 33.957 0 0 1 1.401 65.2 Z M 232.501 39.2 L 232.501 48 L 197.801 48 A 19.594 19.594 0 0 0 198.548 51.63 Q 199.815 55.652 202.801 57.5 Q 206.722 59.927 214.478 60.089 A 54.047 54.047 0 0 0 215.601 60.1 A 40.263 40.263 0 0 0 222.054 59.564 A 45.078 45.078 0 0 0 223.001 59.4 A 44.4 44.4 0 0 0 226.135 58.711 Q 227.672 58.311 228.999 57.828 A 25.56 25.56 0 0 0 229.601 57.6 L 229.601 65.6 A 27.594 27.594 0 0 1 225.817 66.922 A 36.6 36.6 0 0 1 222.251 67.7 Q 218.101 68.4 213.401 68.4 A 40.51 40.51 0 0 1 205.867 67.743 Q 201.57 66.929 198.2 65.105 A 20.75 20.75 0 0 1 194.201 62.3 Q 187.401 56.2 187.401 43.6 A 36.299 36.299 0 0 1 188.087 36.33 Q 189.395 29.931 193.201 25.6 A 18.266 18.266 0 0 1 201.768 20.219 Q 204.74 19.305 208.335 19.076 A 38.889 38.889 0 0 1 210.801 19 A 32.835 32.835 0 0 1 217.028 19.552 Q 223.304 20.766 227.051 24.65 A 19.215 19.215 0 0 1 232.302 35.912 A 26.289 26.289 0 0 1 232.501 39.2 Z M 165.601 67.4 L 153.801 67.4 L 135.101 20 L 146.401 20 L 159.701 56.8 L 173.001 20 L 184.201 20 L 165.601 67.4 Z M 115.601 56.1 L 115.601 0 L 126.501 0 L 126.501 55.1 A 12.274 12.274 0 0 0 126.562 56.369 Q 126.696 57.654 127.127 58.404 A 2.36 2.36 0 0 0 127.501 58.9 Q 128.501 59.9 130.501 59.9 Q 132.901 59.9 135.101 59.3 L 135.101 67.2 A 19.479 19.479 0 0 1 132.898 67.873 A 15.895 15.895 0 0 1 131.451 68.15 A 23.116 23.116 0 0 1 129.815 68.321 Q 128.975 68.38 128.037 68.395 A 40.224 40.224 0 0 1 127.401 68.4 A 18.863 18.863 0 0 1 124.05 68.122 Q 120.664 67.509 118.601 65.55 A 8.364 8.364 0 0 1 116.604 62.478 Q 116.073 61.122 115.823 59.414 A 22.96 22.96 0 0 1 115.601 56.1 Z M 73.289 67.851 A 40.471 40.471 0 0 0 80.201 68.4 Q 86.954 68.4 91.802 66.646 A 18.104 18.104 0 0 0 99.051 62 A 19.363 19.363 0 0 0 101.87 58.071 Q 103.602 54.898 104.376 50.838 A 38.151 38.151 0 0 0 105.001 43.7 Q 105.001 38.122 103.683 33.752 A 20.764 20.764 0 0 0 99.001 25.4 A 17.475 17.475 0 0 0 93.942 21.691 Q 88.501 19 80.201 19 Q 73.653 19 68.886 20.702 A 18.395 18.395 0 0 0 61.501 25.4 A 19.367 19.367 0 0 0 58.659 29.329 Q 56.912 32.502 56.132 36.562 A 37.842 37.842 0 0 0 55.501 43.7 Q 55.501 49.371 56.852 53.793 A 20.753 20.753 0 0 0 61.451 62 A 17.366 17.366 0 0 0 66.723 65.827 Q 69.608 67.211 73.289 67.851 Z M 87.437 57.972 A 9.151 9.151 0 0 0 90.851 55.55 A 10.812 10.812 0 0 0 92.763 52.194 Q 93.878 49.175 93.989 44.706 A 40.519 40.519 0 0 0 94.001 43.7 Q 94.001 35.5 90.851 31.9 A 9.231 9.231 0 0 0 87.262 29.439 Q 85.752 28.834 83.854 28.55 A 24.786 24.786 0 0 0 80.201 28.3 Q 75.83 28.3 72.942 29.556 A 9.131 9.131 0 0 0 69.651 31.9 A 10.579 10.579 0 0 0 67.747 35.205 Q 66.625 38.211 66.514 42.691 A 40.488 40.488 0 0 0 66.501 43.7 Q 66.501 51.237 69.162 54.93 A 9.014 9.014 0 0 0 69.651 55.55 Q 72.048 58.327 76.903 58.991 A 24.381 24.381 0 0 0 80.201 59.2 Q 84.551 59.2 87.437 57.972 Z M 197.801 40.9 L 222.901 40.9 L 222.901 37.6 A 14.304 14.304 0 0 0 222.582 34.485 Q 222.116 32.395 220.968 30.847 A 8.54 8.54 0 0 0 220.201 29.95 A 7.803 7.803 0 0 0 217.462 28.195 Q 214.951 27.2 211.101 27.2 A 27.551 27.551 0 0 0 207.598 27.406 Q 203.668 27.912 201.523 29.657 A 6.897 6.897 0 0 0 200.651 30.5 A 9.989 9.989 0 0 0 198.859 33.658 Q 197.834 36.482 197.802 40.631 A 34.835 34.835 0 0 0 197.801 40.9 Z"/></g></svg>